<svg width="142" height="142" viewBox="0 0 142 142" fill="none" xmlns="http://www.w3.org/2000/svg">
<path d="M108.867 13.4407C111.958 11.6806 115.491 10.8005 119.024 10.8005C130.506 10.8005 140 20.0411 140 31.4817C140 42.9224 130.726 52.3829 119.024 52.3829C115.27 52.3829 111.738 51.2829 108.867 49.7428" stroke="black" stroke-width="4" stroke-miterlimit="10" stroke-linecap="round" stroke-linejoin="round"/>
<path d="M119.907 30.3811C117.478 29.2811 116.374 28.621 116.374 27.3009C116.374 26.2009 117.258 24.8808 119.245 24.8808C121.011 24.8808 122.115 25.5408 122.778 25.7609L123.44 24.0008C122.557 23.5607 121.453 23.1207 119.686 23.1207V20.0405H117.92V22.9007C115.27 23.3407 113.725 25.1008 113.725 27.521C113.725 29.9411 115.491 31.2612 118.362 32.3612C120.349 33.2413 121.453 34.1213 121.453 35.6614C121.453 37.2015 120.128 38.5216 118.141 38.5216C116.595 38.5216 115.05 38.0816 114.166 37.4215L113.504 39.4016C114.608 40.0617 116.154 40.5017 117.92 40.7217V43.5819H119.686V40.7217C122.557 40.2817 124.102 38.0816 124.102 35.8814C124.323 33.0213 122.778 31.4812 119.907 30.3811Z" fill="black"/>
<path d="M122.336 75.4841H140V130.927C140 135.768 136.026 139.728 131.168 139.728C126.31 139.728 122.336 135.768 122.336 130.927V75.4841Z" stroke="black" stroke-width="4" stroke-miterlimit="10" stroke-linecap="round" stroke-linejoin="round"/>
<path d="M139.999 75.4835L131.168 61.4033L122.336 75.4835" stroke="black" stroke-width="4" stroke-miterlimit="10" stroke-linecap="round" stroke-linejoin="round"/>
<path d="M139.999 124.987H122.336" stroke="black" stroke-width="4" stroke-miterlimit="10" stroke-linecap="round" stroke-linejoin="round"/>
<path d="M139.999 116.626H122.336" stroke="black" stroke-width="4" stroke-miterlimit="10" stroke-linecap="round" stroke-linejoin="round"/>
<path d="M104.451 139.728H6.416C3.9872 139.728 2 137.748 2 135.328V6.40025C2 3.98011 3.9872 2 6.416 2H104.672C107.101 2 109.088 3.98011 109.088 6.40025V135.108C108.867 137.748 106.88 139.728 104.451 139.728Z" stroke="black" stroke-width="4" stroke-miterlimit="10" stroke-linecap="round" stroke-linejoin="round"/>
<path d="M16.1312 108.706H32.6905V125.207H16.1312V108.706Z" stroke="black" stroke-width="4" stroke-miterlimit="10" stroke-linecap="round" stroke-linejoin="round"/>
<path d="M47.0432 108.706H63.6025V125.207H47.0432V108.706Z" stroke="black" stroke-width="4" stroke-miterlimit="10" stroke-linecap="round" stroke-linejoin="round"/>
<path d="M77.9551 108.706H94.5144V125.207H77.9551V108.706Z" stroke="black" stroke-width="4" stroke-miterlimit="10" stroke-linecap="round" stroke-linejoin="round"/>
<path d="M16.1312 77.9043H32.6905V94.4046H16.1312V77.9043Z" stroke="black" stroke-width="4" stroke-miterlimit="10" stroke-linecap="round" stroke-linejoin="round"/>
<path d="M47.0432 77.9043H63.6025V94.4046H47.0432V77.9043Z" stroke="black" stroke-width="4" stroke-miterlimit="10" stroke-linecap="round" stroke-linejoin="round"/>
<path d="M77.9551 77.9043H94.5144V94.4046H77.9551V77.9043Z" stroke="black" stroke-width="4" stroke-miterlimit="10" stroke-linecap="round" stroke-linejoin="round"/>
<path d="M16.1312 47.1028H32.6905V63.603H16.1312V47.1028Z" stroke="black" stroke-width="4" stroke-miterlimit="10" stroke-linecap="round" stroke-linejoin="round"/>
<path d="M47.0432 47.1028H63.6025V63.603H47.0432V47.1028Z" stroke="black" stroke-width="4" stroke-miterlimit="10" stroke-linecap="round" stroke-linejoin="round"/>
<path d="M77.9551 47.1028H94.5144V63.603H77.9551V47.1028Z" stroke="black" stroke-width="4" stroke-miterlimit="10" stroke-linecap="round" stroke-linejoin="round"/>
<path d="M16.1312 16.3008H94.5152V32.8017H16.1312V16.3008Z" stroke="black" stroke-width="4" stroke-miterlimit="10" stroke-linecap="round" stroke-linejoin="round"/>
</svg>
