<svg width="142" height="142" viewBox="0 0 142 142" fill="none" xmlns="http://www.w3.org/2000/svg">
<g clip-path="url(#clip0_110_82)">
<path d="M25.3824 93.6608H23.9328C22.1578 93.6608 20.7083 92.2112 20.7083 90.4362H16.2708C16.2708 94.1341 18.9333 97.2404 22.4241 97.9504V99.8437H26.8616V97.9208C30.3524 97.2108 33.0149 94.1341 33.0149 90.4066C33.0149 86.1762 29.5833 82.7445 25.3528 82.7445H23.9328C22.1578 82.7741 20.7083 81.3541 20.7083 79.5495C20.7083 77.7449 22.1578 76.3249 23.9328 76.3249H25.3824C27.1574 76.3249 28.607 77.7745 28.607 79.5495H33.0445C33.0445 75.8516 30.382 72.7454 26.8912 72.0354V69.8462H22.4537V72.0354C18.9333 72.7454 16.2708 75.8516 16.2708 79.5495C16.2708 83.7799 19.7024 87.2116 23.9328 87.2116H25.3824C27.1574 87.2116 28.607 88.6612 28.607 90.4362C28.5774 92.2112 27.1278 93.6608 25.3824 93.6608Z" fill="black"/>
<path d="M135.989 52.6419V39.5917C135.989 33.1572 130.733 27.9008 124.299 27.9008H109.921L98.08 1.34715C97.5665 0.199206 96.2374 -0.314347 95.0896 0.199206L32.9249 27.931H25.6452C18.0332 27.931 11.8409 34.0936 11.7805 41.7063C11.7805 41.7365 11.7503 41.7667 11.7503 41.7969V64.9068C4.7424 69.0152 0 76.6278 0 85.328C0 92.0646 2.8394 98.1668 7.40055 102.456C2.59775 103.786 0.090619 105.749 0.0302063 108.287V117.712C0.0302063 119.162 0.815571 120.34 2.11444 121.307C0.966603 122.153 0.090619 123.301 0.0604126 124.781H0.0302063V134.206C0.0302063 141.789 21.2653 142 23.6818 142C26.0983 142 47.3333 141.789 47.3333 134.206V130.249H130.31C136.744 130.249 142 125.023 142 118.558V102.577V78.7727V62.7921C142 58.4118 139.553 54.6357 135.989 52.6419ZM124.299 32.4624C128.256 32.4624 131.458 35.6645 131.458 39.6219V51.2221C131.096 51.1919 130.733 51.1013 130.34 51.1013H120.251L111.945 32.4624H124.299ZM94.8781 5.27431L115.298 51.1013H108.894L96.0562 24.9101C95.5124 23.8226 94.2136 23.3393 93.0959 23.8528C89.7732 25.333 85.8766 23.8226 84.3965 20.5298C83.883 19.3819 82.5539 18.8683 81.4061 19.3819L55.6401 30.8613C55.0964 31.103 54.6735 31.5561 54.462 32.1301C54.2506 32.704 54.2506 33.3082 54.5224 33.852C56.0026 37.175 54.4922 41.0719 51.1695 42.5521C50.0217 43.0657 49.5082 44.3949 50.0217 45.5428L52.4684 51.1315H44.947L36.1872 31.4655L94.8781 5.27431ZM57.392 51.1013L54.9755 45.573C58.5701 43.0053 60.2919 38.5041 59.3555 34.1843L81.4061 24.3664C84.0038 27.9612 88.5046 29.6831 92.8543 28.7164L103.849 51.1315H57.392V51.1013ZM25.6452 32.4624H31.626L39.9328 51.1013H25.6754C25.5848 51.1013 25.5244 51.1013 25.4337 51.1013C25.0411 51.1013 24.6484 51.0409 24.2557 50.9804C24.0442 50.9502 23.8328 50.92 23.6214 50.8596C22.8662 50.7086 22.1412 50.4367 21.4767 50.1044C21.3559 50.0138 21.2351 49.9533 21.084 49.8627C20.5705 49.5908 20.0872 49.2283 19.6643 48.8658C19.5133 48.745 19.3623 48.6241 19.2112 48.5033C18.6977 48.02 18.2446 47.4762 17.8822 46.9022C17.7613 46.7512 17.7009 46.5699 17.6103 46.3887C17.3384 45.9053 17.0968 45.3918 16.9156 44.848C16.8249 44.5761 16.7041 44.2741 16.6437 43.972C16.5833 43.8209 16.5229 43.6397 16.4927 43.4584C16.402 42.9147 16.3114 42.3407 16.3114 41.7667C16.3114 36.6312 20.5101 32.4624 25.6452 32.4624ZM4.56116 85.2978C4.56116 74.7549 13.1398 66.1755 23.6818 66.1755C34.2238 66.1755 42.8024 74.7549 42.8024 85.2978C42.8024 95.8407 34.2238 104.42 23.6818 104.42C13.1398 104.42 4.56116 95.8407 4.56116 85.2978ZM12.2638 106.021C15.6469 107.894 19.5435 108.982 23.6818 108.982C27.82 108.982 31.7167 107.894 35.0998 106.021C39.6307 106.807 41.8056 107.834 42.5607 108.408C40.8994 109.707 34.0425 111.67 23.6818 111.67C13.321 111.67 6.46416 109.737 4.80281 108.408C5.55797 107.834 7.73282 106.807 12.2638 106.021ZM23.6818 120.944C12.6867 120.944 5.64859 118.769 4.56116 117.47V113.332C10.9347 116.051 21.9902 116.171 23.6818 116.171C25.3733 116.171 36.4288 116.051 42.8024 113.332V117.47C41.715 118.769 34.7071 120.944 23.6818 120.944ZM23.6818 125.476C25.1317 125.476 33.4384 125.385 39.812 123.663C41.2921 124.147 42.1378 124.63 42.5607 124.932C40.8994 126.231 34.0425 128.164 23.6818 128.164C13.321 128.164 6.46416 126.231 4.80281 124.932C5.2257 124.63 6.07147 124.147 7.55158 123.663C13.9251 125.385 22.2319 125.476 23.6818 125.476ZM23.6818 137.469C12.6867 137.469 5.64859 135.294 4.56116 133.995V129.856C10.9347 132.575 21.9902 132.696 23.6818 132.696C25.3733 132.696 36.4288 132.575 42.8024 129.856V133.995C41.715 135.294 34.7071 137.469 23.6818 137.469ZM130.31 125.717H47.3333V124.781C47.3031 123.452 46.5782 122.304 45.2491 121.307C46.548 120.34 47.3635 119.162 47.3635 117.682V108.257H47.3333C47.2427 105.719 44.7658 103.786 39.963 102.426C44.4939 98.1064 47.3635 92.0344 47.3635 85.2978C47.3635 72.2475 36.7611 61.6442 23.712 61.6442C21.1444 61.6442 18.6675 62.0671 16.3416 62.8224V52.0075C16.8249 52.4607 17.3686 52.8534 17.9124 53.2159C17.9426 53.2461 18.003 53.2763 18.0634 53.3065C18.6675 53.6992 19.2716 54.0315 19.9362 54.3336C20.1778 54.4545 20.4195 54.5451 20.6611 54.6357C21.084 54.7868 21.5069 54.9076 21.96 55.0284C22.4735 55.1795 22.9568 55.3003 23.5005 55.391C24.1349 55.5118 24.7994 55.5722 25.4942 55.6024C25.5848 55.6024 25.6452 55.6326 25.7358 55.6326H130.401C134.328 55.6326 137.56 58.8348 137.56 62.7921V76.507H112.186C104.363 76.507 98.0196 82.8509 98.0196 90.675C98.0196 98.4991 104.363 104.843 112.186 104.843H137.469V118.558C137.469 122.515 134.267 125.717 130.31 125.717ZM137.469 100.312H112.096C106.779 100.312 102.46 95.9918 102.46 90.675C102.46 85.3582 106.779 81.0383 112.096 81.0383H137.469V100.312Z" fill="black"/>
<path d="M110.642 88.04H114.754V92.4775H110.642V88.04Z" fill="black"/>
</g>
<defs>
<clipPath id="clip0_110_82">
<rect width="142" height="142" fill="white"/>
</clipPath>
</defs>
</svg>
