<svg width="136" height="142" viewBox="0 0 136 142" fill="none" xmlns="http://www.w3.org/2000/svg">
<path d="M135.573 119.635C135.519 119.111 135.304 118.617 134.957 118.221C134.609 117.825 134.147 117.546 133.634 117.424C123.019 114.991 113.679 108.735 107.406 99.8548L110.013 91.8533C110.294 90.9841 110.845 90.2268 111.587 89.6916L121.205 82.7224C122.818 81.5588 124.018 79.9145 124.633 78.0267C125.248 76.1388 125.245 74.105 124.626 72.2185L120.952 60.9469C120.669 60.0774 120.669 59.1409 120.952 58.2714L124.626 46.9961C125.246 45.1096 125.248 43.0757 124.633 41.1878C124.018 39.2999 122.818 37.6556 121.205 36.4921L111.587 29.5241C110.846 28.9877 110.295 28.2303 110.013 27.3613L106.339 16.0884C105.729 14.1988 104.532 12.5515 102.922 11.3843C101.312 10.2171 99.3718 9.59042 97.3814 9.59474H85.4943C84.5788 9.59642 83.6866 9.30716 82.9471 8.76892L73.3291 1.79957C71.7213 0.630123 69.7827 0 67.7927 0C65.8028 0 63.8642 0.630123 62.2564 1.79957L52.641 8.76755C51.9007 9.30635 51.0077 9.59603 50.0912 9.59459H38.2041C36.2141 9.59122 34.2744 10.218 32.6644 11.3845C31.0544 12.5511 29.8572 14.1973 29.2453 16.0859L25.5722 27.3624C25.291 28.2311 24.7397 28.9879 23.9982 29.5229L14.3827 36.4921C12.7699 37.6554 11.5693 39.2996 10.954 41.1874C10.3386 43.0753 10.3404 45.1093 10.9591 46.9961L14.6322 58.2714C14.9177 59.1392 14.9177 60.0753 14.6322 60.9432L10.9591 72.2185C10.3408 74.1052 10.339 76.1389 10.9541 78.0267C11.5692 79.9144 12.7693 81.5587 14.3815 82.7224L23.9994 89.6916C24.7411 90.2268 25.2921 90.9841 25.5722 91.8533L28.1792 99.8557C21.9064 108.736 12.5664 114.992 1.95188 117.424C1.43851 117.546 0.976027 117.825 0.628585 118.221C0.281143 118.617 0.0659621 119.111 0.0128892 119.635C-0.0401838 120.159 0.0714819 120.686 0.332398 121.144C0.593315 121.601 0.990548 121.967 1.469 122.189C1.99779 122.434 13.2258 127.566 22.161 126.805C22.3815 130.714 21.4205 134.599 19.4026 137.957C19.0778 138.396 18.9034 138.927 18.9052 139.472C18.907 140.018 19.085 140.548 19.4127 140.984C19.7405 141.421 20.2005 141.74 20.7246 141.895C21.2487 142.05 21.8089 142.033 22.3222 141.845C23.3595 141.466 46.7579 132.707 57.7486 114.148L62.2564 117.415C63.864 118.585 65.8027 119.215 67.7927 119.215C69.7828 119.215 71.7214 118.585 73.3291 117.415L77.8362 114.149C88.8281 132.708 112.226 141.466 113.263 141.845C113.776 142.033 114.337 142.05 114.861 141.895C115.385 141.74 115.845 141.421 116.173 140.985C116.501 140.548 116.679 140.018 116.68 139.473C116.682 138.927 116.508 138.396 116.183 137.957C114.164 134.599 113.203 130.714 113.424 126.805C122.367 127.566 133.589 122.434 134.115 122.189C134.594 121.967 134.991 121.602 135.252 121.144C135.514 120.686 135.626 120.159 135.573 119.635ZM26.3977 134.487C27.2257 130.886 27.4514 127.174 27.0655 123.5C27.0197 123.137 26.8956 122.788 26.7018 122.477C26.5081 122.167 26.2492 121.901 25.9429 121.7C25.6367 121.498 25.2903 121.365 24.9276 121.31C24.5649 121.254 24.1945 121.277 23.8417 121.378C19.3064 122.111 14.6581 121.668 10.3446 120.089C18.1759 116.99 25.0693 111.921 30.3538 105.376C31.2053 106.679 32.3691 107.749 33.7398 108.49C35.1106 109.231 36.645 109.62 38.2041 109.62H50.0912C51.007 109.618 51.8996 109.908 52.6397 110.446L53.6359 111.168C46.8047 123.011 33.9104 130.763 26.3977 134.487ZM70.34 113.312C69.6006 113.851 68.7085 114.141 67.7928 114.141C66.877 114.141 65.985 113.851 65.2455 113.312L55.6276 106.342C54.0195 105.173 52.0806 104.546 50.0912 104.549H38.2041C37.2883 104.55 36.3957 104.262 35.6548 103.725C34.914 103.188 34.3631 102.431 34.0816 101.561L30.4084 90.2873C29.7982 88.398 28.5998 86.7521 26.9873 85.5888L17.3706 78.6194C16.6286 78.084 16.0762 77.3274 15.7931 76.4587C15.51 75.59 15.5108 74.6541 15.7953 73.7859L19.4685 62.5107C20.0879 60.6244 20.0879 58.5903 19.4685 56.7041L15.7953 45.4288C15.5105 44.5606 15.5095 43.6246 15.7927 42.7558C16.0758 41.8871 16.6284 41.1305 17.3706 40.5953L26.9886 33.6249C28.5999 32.4618 29.7978 30.817 30.4084 28.9289L34.0816 17.6536C34.3631 16.7845 34.914 16.0269 35.6548 15.49C36.3957 14.9531 37.2883 14.6647 38.2041 14.6661H50.0912C52.0812 14.6694 54.0206 14.0411 55.6288 12.8721L65.2456 5.90259C65.9847 5.3632 66.8769 5.07246 67.7928 5.07246C68.7087 5.07246 69.6008 5.3632 70.34 5.90259L79.9579 12.8718C81.5655 14.0411 83.5047 14.6695 85.4943 14.6658H97.3814C98.2972 14.6638 99.1899 14.952 99.9307 15.489C100.671 16.026 101.222 16.7839 101.503 17.6533L105.177 28.9286C105.789 30.8165 106.987 32.4615 108.598 33.6259L118.216 40.5951C118.958 41.1303 119.511 41.887 119.794 42.7558C120.077 43.6246 120.075 44.5606 119.79 45.4286L116.116 56.7077C115.5 58.5932 115.5 60.625 116.116 62.5106L119.79 73.7859C120.075 74.6539 120.076 75.5899 119.794 76.4587C119.511 77.3274 118.958 78.0841 118.216 78.6194L108.598 85.5886C106.987 86.7523 105.788 88.3975 105.177 90.2859L101.503 101.564C101.221 102.433 100.671 103.19 99.93 103.726C99.1893 104.263 98.2968 104.551 97.3814 104.549H85.4943C83.5047 104.545 81.5655 105.173 79.9579 106.343L70.34 113.312ZM111.741 121.378C111.389 121.278 111.018 121.254 110.656 121.31C110.293 121.365 109.947 121.499 109.641 121.7C109.335 121.902 109.076 122.167 108.882 122.478C108.689 122.788 108.565 123.137 108.519 123.5C108.133 127.174 108.359 130.886 109.187 134.487C101.675 130.763 88.7806 123.011 81.9507 111.168L82.9471 110.446C83.6866 109.908 84.5788 109.618 85.4943 109.62H97.3814C98.9409 109.62 100.476 109.232 101.847 108.491C103.218 107.75 104.382 106.679 105.233 105.376C110.518 111.923 117.414 116.992 125.247 120.092C120.932 121.674 116.279 122.117 111.741 121.378Z" fill="black"/>
<path d="M99.2757 59.6074C99.2756 53.3969 97.429 47.3259 93.9695 42.1621C90.5099 36.9983 85.5928 32.9736 79.8399 30.5971C74.087 28.2205 67.7567 27.5988 61.6495 28.8105C55.5424 30.0222 49.9326 33.013 45.5296 37.4046C41.1267 41.7962 38.1283 47.3914 36.9136 53.4826C35.6989 59.5738 36.3225 65.8875 38.7055 71.6252C41.0885 77.3629 45.1239 82.267 50.3014 85.7173C55.4789 89.1676 61.5659 91.0092 67.7928 91.0091C76.1398 90.9993 84.1421 87.6877 90.0442 81.8009C95.9463 75.914 99.2663 67.9326 99.2757 59.6074ZM67.7928 85.9378C62.5714 85.9381 57.4671 84.394 53.1255 81.5009C48.784 78.6078 45.4001 74.4957 43.4018 69.6844C41.4034 64.8732 40.8805 59.5789 41.899 54.4712C42.9175 49.3635 45.4317 44.6718 49.1237 40.9893C52.8158 37.3068 57.5197 34.7989 62.6408 33.7829C67.7619 32.7668 73.07 33.2882 77.894 35.281C82.718 37.2739 86.8411 40.6488 89.742 44.9788C92.6429 49.3089 94.1912 54.3997 94.1912 59.6074C94.1834 66.5881 91.3997 73.2807 86.4507 78.2168C81.5018 83.153 74.7918 85.9297 67.7928 85.9378Z" fill="black"/>
<path d="M74.99 71.0176H67.1683C75.206 63.0059 78.878 55.1354 77.1003 49.3077C76.5673 47.6004 75.5202 46.0982 74.1012 45.0053C72.6822 43.9123 70.9603 43.2817 69.1693 43.199C67.7741 42.9767 66.3466 43.0708 64.9929 43.4744C63.6392 43.878 62.3941 44.5807 61.3501 45.5303C60.2069 46.8072 59.3281 48.2971 58.7644 49.9141C58.2007 51.5311 57.9632 53.2433 58.0655 54.9522C58.0839 55.2851 58.168 55.6112 58.313 55.9117C58.4579 56.2122 58.6608 56.4813 58.9101 56.7035C59.1594 56.9257 59.4502 57.0966 59.7659 57.2066C60.0815 57.3166 60.4158 57.3634 60.7496 57.3443C61.0834 57.3253 61.4101 57.2407 61.7112 57.0956C62.0122 56.9504 62.2815 56.7475 62.5038 56.4984C62.7261 56.2493 62.8969 55.9589 63.0065 55.6439C63.1161 55.3288 63.1624 54.9953 63.1426 54.6625C63.0231 52.692 63.6351 50.7467 64.8619 49.1975C65.3802 48.7661 65.9891 48.4564 66.6435 48.2912C67.298 48.1259 67.9813 48.1095 68.643 48.243C69.4344 48.2317 70.2089 48.4718 70.8545 48.9285C71.5001 49.3852 71.9833 50.0349 72.2342 50.7836C73.4234 54.6774 69.7825 62.626 58.9704 71.6046C58.5687 71.938 58.2797 72.3867 58.1428 72.8898C58.006 73.3929 58.0279 73.9258 58.2057 74.416C58.3834 74.9062 58.7083 75.3298 59.1362 75.6292C59.564 75.9285 60.074 76.0891 60.5966 76.089H74.99C75.6643 76.089 76.3109 75.8218 76.7877 75.3463C77.2645 74.8708 77.5323 74.2259 77.5323 73.5534C77.5323 72.8809 77.2645 72.2359 76.7877 71.7604C76.3109 71.2849 75.6643 71.0176 74.99 71.0176Z" fill="black"/>
</svg>
