<svg width="142" height="142" viewBox="0 0 142 142" fill="none" xmlns="http://www.w3.org/2000/svg">
<path d="M124.698 57.8633C126.758 64.1942 127.802 70.8103 127.802 77.5272C127.802 94.4849 121.198 110.427 109.208 122.418C97.217 134.409 81.2745 141.013 64.3171 141.013C47.3598 141.013 31.4172 134.409 19.4265 122.418C7.43586 110.427 0.832031 94.4849 0.832031 77.5272C0.832031 60.5696 7.43586 44.6273 19.4265 32.6367C31.4172 20.646 47.3598 14.0422 64.3171 14.0422C73.979 14.0422 83.2572 16.1572 91.8942 20.3287C92.9978 20.8615 93.4601 22.1883 92.9274 23.2916C92.3946 24.3948 91.0672 24.8575 89.9642 24.3244C81.9343 20.446 73.3053 18.4794 64.3171 18.4794C31.7581 18.4794 5.26953 44.9679 5.26953 77.527C5.26953 110.086 31.7584 136.575 64.3171 136.575C96.8759 136.575 123.365 110.086 123.365 77.527C123.365 71.2767 122.393 65.1228 120.478 59.2362C120.099 58.0708 120.736 56.8188 121.901 56.4397C123.067 56.0608 124.319 56.6979 124.698 57.863V57.8633ZM92.0917 33.779C94.8105 33.779 97.022 35.9909 97.022 38.7094V53.849C97.022 56.5678 94.8102 58.7796 92.0917 58.7796H85.9003C84.2221 58.7796 82.7782 57.7565 82.1595 56.3016C81.6422 56.5958 81.1258 57.0149 80.5753 57.624C78.7823 59.6078 76.421 60.6564 73.7468 60.6564H73.1067V78.2888H78.909C82.4512 72.9932 88.4524 69.7536 94.8693 69.7536C101.947 69.7536 108.427 73.63 111.78 79.8705C112.149 80.5581 112.131 81.3893 111.73 82.0593C111.329 82.7294 110.606 83.1396 109.826 83.1396H95.7013L92.3521 88.9408L95.7013 94.7417H109.826C110.606 94.7417 111.329 95.1519 111.73 95.8222C112.13 96.4923 112.149 97.3235 111.78 98.011C108.427 104.251 101.947 108.128 94.8693 108.128C88.349 108.128 82.4734 104.962 78.9062 99.5927H74.9682V118.113C74.9682 123.987 70.1899 128.765 64.3166 128.765C58.4433 128.765 53.6652 123.987 53.6652 118.113V99.5927H49.7272C46.1603 104.962 40.2845 108.128 33.7641 108.128C26.686 108.128 20.2064 104.251 16.8533 98.011C16.4839 97.3235 16.5028 96.4923 16.9035 95.8222C17.304 95.1522 18.0273 94.742 18.8078 94.742H32.9321L36.2813 88.9408L32.9321 83.1396H18.8078C18.0273 83.1396 17.304 82.7294 16.9035 82.0593C16.5031 81.3893 16.4839 80.5581 16.8533 79.8705C20.2062 73.6306 26.6863 69.7536 33.7638 69.7536C40.181 69.7536 46.1816 72.9927 49.7244 78.2888H55.5267V60.6564H54.7299C51.4525 60.6564 48.7859 57.9898 48.7859 54.7121V52.548H45.5637C41.9599 52.548 38.5147 57.6556 36.2347 61.0353C36.0386 61.3259 35.8481 61.6083 35.6634 61.8795C35.2421 62.4974 34.5495 62.8491 33.8296 62.8491C33.6121 62.8491 33.3922 62.8169 33.1761 62.7507C32.2459 62.4636 31.6111 61.6038 31.6111 60.6304C31.6111 54.1006 31.9428 47.3131 34.3501 41.9105C37.3094 35.2695 42.8934 31.9023 50.9469 31.9023H73.7463C76.4204 31.9023 78.7814 32.9509 80.5745 34.9347C81.125 35.5441 81.6417 35.9628 82.1589 36.2574C82.7777 34.8022 84.2213 33.7793 85.8995 33.7793H92.0909L92.0917 33.779ZM70.5313 99.5919H58.103V118.113C58.103 121.539 60.8905 124.327 64.3168 124.327C67.7431 124.327 70.531 121.539 70.531 118.113L70.5313 99.5919ZM48.4919 82.7261C47.697 82.7261 46.9629 82.3009 46.5677 81.6114C43.941 77.0341 39.0353 74.1905 33.7647 74.1908C29.6974 74.1908 25.8867 75.856 23.1446 78.7015H34.2137C35.0063 78.7015 35.7388 79.1245 36.1354 79.8109L40.7654 87.8308C41.1617 88.5173 41.1617 89.3632 40.7654 90.0496L36.1354 98.0695C35.7388 98.756 35.0066 99.1789 34.2137 99.1789H23.1701C25.9242 101.996 29.7737 103.69 33.7647 103.69C39.1152 103.69 43.9013 100.916 46.5677 96.269C46.9632 95.5796 47.697 95.1544 48.4919 95.1544H80.1424C80.9369 95.1544 81.6714 95.5796 82.0666 96.269C84.733 100.916 89.5191 103.69 94.8696 103.69C98.8606 103.69 102.71 101.996 105.464 99.1789H94.4206C93.6279 99.1789 92.8955 98.756 92.4991 98.0695L87.8692 90.0499C87.4726 89.3634 87.4726 88.5175 87.8692 87.8311L92.4989 79.8112C92.8955 79.1247 93.6276 78.7018 94.4206 78.7018H105.49C102.748 75.8562 98.9371 74.1908 94.8696 74.1911C89.599 74.1911 84.6933 77.0344 82.0666 81.6117C81.6711 82.3012 80.9369 82.7263 80.1424 82.7263H48.4919V82.7261ZM68.6695 60.6562H59.9648V78.2886H68.6695V60.6562ZM81.8375 51.6439V40.9145C80.096 40.3812 78.643 39.415 77.2829 37.9101C76.3278 36.8534 75.1712 36.3398 73.7468 36.3398H50.9475C44.6324 36.3398 40.6467 38.6839 38.4041 43.7168C37.1552 46.5191 36.5561 49.898 36.2774 53.4641C38.7438 50.5525 41.7713 48.1108 45.564 48.1108H51.0049C52.2302 48.1108 53.2237 49.1042 53.2237 50.3295V54.7124C53.2237 55.5433 53.8995 56.2192 54.7302 56.2192H73.7465C75.1713 56.2192 76.3278 55.7056 77.2827 54.6489C78.643 53.144 80.096 52.1778 81.8372 51.6444L81.8375 51.6439ZM92.0917 38.2165H86.275V54.3421H92.0917C92.3591 54.3421 92.5845 54.1164 92.5845 53.849V38.7094C92.5845 38.4423 92.3591 38.2165 92.0917 38.2165ZM141.168 11.6268V30.9329C141.168 40.3221 132.366 45.7137 126.542 49.2817C125.488 49.9271 124.415 50.5675 123.377 51.1868C122.474 51.726 121.57 52.2651 120.671 52.8118C120.318 53.0273 119.918 53.1351 119.518 53.1351C119.124 53.1351 118.73 53.0303 118.379 52.8204C117.811 52.4806 117.228 52.1345 116.632 51.7817C110.311 48.034 103.146 43.7862 99.9369 38.383C98.5749 36.0896 97.9126 33.6526 97.9126 30.9329V11.6268C97.9126 10.7431 98.4371 9.94384 99.2472 9.59162L118.634 1.17119C119.197 0.926568 119.837 0.926291 120.4 1.17063L139.831 9.59106C140.643 9.94274 141.168 10.7426 141.168 11.6268ZM136.73 13.0834L119.519 5.62477L102.35 13.082V30.9329C102.35 32.8594 102.795 34.5065 103.752 36.1171C106.382 40.5465 113.32 44.6595 118.895 47.9643C119.102 48.0867 119.306 48.2081 119.51 48.3288C120.04 48.0101 120.572 47.6931 121.103 47.3758C122.13 46.7632 123.192 46.1292 124.224 45.4974C131.067 41.3059 136.731 37.3168 136.731 30.9327V13.0834H136.73ZM111.858 24.3108C111.245 23.25 109.889 22.8858 108.827 23.4987C107.766 24.1114 107.402 25.4684 108.015 26.5296L113.053 35.2551C113.398 35.8525 114.001 36.2554 114.685 36.3456C114.781 36.3583 114.878 36.3644 114.975 36.3644C115.559 36.3644 116.124 36.1334 116.543 35.7146L130.712 21.5457C131.579 20.6793 131.579 19.2745 130.712 18.4081C129.846 17.5417 128.441 17.5417 127.575 18.4081L115.45 30.5325L111.858 24.3108Z" fill="black"/>
</svg>
