<svg width="142" height="142" viewBox="0 0 142 142" fill="none" xmlns="http://www.w3.org/2000/svg">
<g clip-path="url(#clip0_20_1966)">
<path fill-rule="evenodd" clip-rule="evenodd" d="M76.8394 134.212C68.9934 134.212 61.0419 130.953 51.0565 123.641C38.826 114.684 19.5302 95.3903 10.5748 83.1594C-2.9579 64.6774 -3.43382 51.8402 8.76104 34.1037C12.593 28.5317 16.782 25.7064 21.2137 25.7064C24.3014 25.7064 27.3416 27.0678 30.2497 29.7519C31.6862 31.0776 33.9788 33.5806 36.0022 35.7898C36.8982 36.7669 37.7345 37.6802 38.4014 38.3874C46.651 47.1258 42.0345 52.0023 36.1873 58.1751C34.8633 59.5745 33.362 61.1599 31.8758 62.9164C29.5877 65.6205 30.9871 70.2403 32.5634 73.6402C38.9144 87.332 57.8992 103.539 67.5885 103.539C69.1359 103.539 70.3512 103.147 71.3025 102.342C73.0576 100.857 74.6431 99.3549 76.0424 98.0315C79.9818 94.3005 83.0938 91.3536 87.0816 91.3536C89.8251 91.3536 92.6052 92.7727 95.8308 95.8178C96.5377 96.4847 97.4507 97.3223 98.4308 98.2176C100.639 100.24 103.142 102.533 104.467 103.969C107.454 107.207 108.832 110.727 108.448 114.148C107.999 118.159 105.195 121.964 100.114 125.458C91.423 131.431 84.0264 134.212 76.8394 134.212ZM21.213 29.0339C17.9429 29.0339 14.6773 31.3741 11.5028 35.9892C0.155324 52.4953 0.598881 63.9017 13.2602 81.1936C22.0565 93.2067 41.0085 112.159 53.0233 120.955C62.4007 127.823 69.7468 130.885 76.8394 130.885C83.3221 130.885 90.118 128.289 98.228 122.714C102.478 119.793 104.802 116.785 105.139 113.777C105.416 111.308 104.366 108.767 102.019 106.225C100.79 104.893 98.341 102.65 96.1813 100.671C95.1888 99.7621 94.2621 98.9141 93.5456 98.2366C91.0115 95.8444 88.8967 94.6808 87.0803 94.6808C84.4182 94.6808 81.8644 97.1006 78.3292 100.447C76.8997 101.802 75.2773 103.337 73.4517 104.883C71.8951 106.2 69.9228 106.868 67.5872 106.868C55.5957 106.868 35.9892 88.9368 29.5436 75.0399C25.9475 67.2885 27.4451 62.9999 29.3346 60.7666C30.8794 58.9397 32.416 57.3182 33.7696 55.8877C39.64 49.6877 42.0699 47.1226 35.98 40.672C35.3039 39.9559 34.4558 39.0298 33.5478 38.0386C31.5683 35.8776 29.3254 33.429 27.9918 32.1983C25.7178 30.0982 23.4379 29.0339 21.213 29.0339Z" fill="black"/>
<path fill-rule="evenodd" clip-rule="evenodd" d="M99.312 125.65C98.8868 125.65 98.4603 125.487 98.1347 125.162L74.6595 101.687C74.0086 101.036 74.0086 99.9821 74.6595 99.3325C75.31 98.6833 76.3639 98.682 77.0134 99.3325L100.489 122.808C101.139 123.459 101.139 124.512 100.489 125.162C100.164 125.487 99.7375 125.65 99.312 125.65ZM33.7074 60.0435C33.2809 60.0435 32.8557 59.8807 32.5311 59.5557L9.05555 36.0809C8.40466 35.4313 8.40466 34.3775 9.05555 33.7279C9.7048 33.0774 10.7586 33.0774 11.4082 33.7279L34.8834 57.2034C35.5342 57.8527 35.5342 58.9068 34.8834 59.5561C34.5591 59.8807 34.1336 60.0435 33.7074 60.0435Z" fill="black"/>
<path fill-rule="evenodd" clip-rule="evenodd" d="M102.322 105.812C101.836 105.812 101.354 105.598 101.025 105.19C100.449 104.475 100.563 103.428 101.279 102.851C113.138 93.3074 119.938 79.116 119.938 63.9153C119.938 49.6292 113.799 35.9947 103.092 26.5108C102.405 25.9022 102.341 24.8503 102.95 24.1618C103.559 23.4752 104.611 23.4097 105.299 24.0196C116.717 34.1344 123.267 48.676 123.267 63.9147C123.267 80.1285 116.012 95.2641 103.364 105.443C103.057 105.691 102.689 105.812 102.322 105.812ZM36.7864 26.0545C36.3117 26.0545 35.8413 25.8537 35.5118 25.4619C34.9202 24.7583 35.0106 23.7087 35.7142 23.1175C45.2833 15.0664 57.4536 10.6317 69.9846 10.6317C75.7587 10.6317 81.4388 11.5502 86.8673 13.3643C87.7399 13.6555 88.21 14.5973 87.9191 15.47C87.6269 16.3413 86.6848 16.8124 85.8135 16.5218C80.7253 14.8217 75.3996 13.9608 69.9845 13.9608C58.2368 13.9608 46.8271 18.1174 37.8575 25.666C37.544 25.9261 37.1641 26.0545 36.7864 26.0545Z" fill="black"/>
<path fill-rule="evenodd" clip-rule="evenodd" d="M104.462 89.8723C104.13 89.8723 103.795 89.7727 103.504 89.567C102.754 89.0366 102.574 87.9989 103.103 87.2478C107.939 80.393 110.494 72.3236 110.494 63.9134C110.494 51.0614 104.595 39.2538 94.3083 31.5159C93.5733 30.9636 93.4255 29.9199 93.9788 29.1852C94.5301 28.4501 95.576 28.3034 96.3085 28.8556C107.44 37.2277 113.823 50.0047 113.823 63.9122C113.823 73.0125 111.056 81.7452 105.822 89.1647C105.5 89.6263 104.984 89.8723 104.462 89.8723ZM36.2821 40.2185C35.9332 40.2185 35.5821 40.1097 35.2817 39.8837C34.5479 39.3304 34.4012 38.2878 34.9544 37.5527C43.3265 26.4457 56.0943 20.076 69.9844 20.076C72.5876 20.076 75.1984 20.3063 77.744 20.7613C78.649 20.9232 79.2521 21.7879 79.09 22.6914C78.9281 23.5952 78.0699 24.2051 77.1592 24.0374C74.8066 23.6181 72.3914 23.4042 69.9844 23.4042C57.1495 23.4042 45.35 29.292 37.6127 39.5578C37.2855 39.9912 36.7872 40.2185 36.2821 40.2185Z" fill="black"/>
<path fill-rule="evenodd" clip-rule="evenodd" d="M66.9044 66.2736H55.1983C54.2798 66.2736 53.5342 65.528 53.5342 64.6095V52.9024C53.5342 51.9842 54.2798 51.2386 55.1983 51.2386H65.2403V42.8596H55.1973C54.2788 42.8596 53.5332 42.1141 53.5332 41.1956C53.5332 40.277 54.2788 39.5315 55.1973 39.5315H66.9044C67.8229 39.5315 68.5685 40.2771 68.5685 41.1956V52.9024C68.5685 53.8209 67.8229 54.5664 66.9044 54.5664H56.862V62.9454H66.9044C67.8229 62.9454 68.5685 63.691 68.5685 64.6095C68.5685 65.528 67.8229 66.2736 66.9044 66.2736Z" fill="black"/>
<path fill-rule="evenodd" clip-rule="evenodd" d="M85.9743 66.2736C85.0561 66.2736 84.3105 65.528 84.3105 64.6095V41.1956C84.3105 40.277 85.0568 39.5315 85.9743 39.5315C86.8922 39.5315 87.6384 40.277 87.6384 41.1956V64.6095C87.6384 65.528 86.8928 66.2736 85.9743 66.2736Z" fill="black"/>
<path fill-rule="evenodd" clip-rule="evenodd" d="M85.9744 54.5664H74.2676C73.3491 54.5664 72.6035 53.8209 72.6035 52.9024V41.1956C72.6035 40.277 73.3497 39.5315 74.2676 39.5315C75.1851 39.5315 75.9313 40.277 75.9313 41.1956V51.2386H84.3093V41.1956C84.3093 40.277 85.0555 39.5315 85.9731 39.5315C86.8909 39.5315 87.6371 40.277 87.6371 41.1956V52.9024C87.6385 53.8209 86.8929 54.5664 85.9744 54.5664Z" fill="black"/>
<path fill-rule="evenodd" clip-rule="evenodd" d="M93.5642 72.6629H62.6321C61.7136 72.6629 60.9681 71.9163 60.9681 70.9988C60.9681 70.0803 61.7136 69.3347 62.6321 69.3347H93.5642C94.4827 69.3347 95.2283 70.0803 95.2283 70.9988C95.2292 71.9173 94.4827 72.6629 93.5642 72.6629ZM52.8017 72.6629H47.6074C46.6889 72.6629 45.9434 71.9163 45.9434 70.9988C45.9434 70.0803 46.6889 69.3347 47.6074 69.3347H52.8017C53.7203 69.3347 54.4658 70.0803 54.4658 70.9988C54.4658 71.9173 53.7203 72.6629 52.8017 72.6629Z" fill="black"/>
<path fill-rule="evenodd" clip-rule="evenodd" d="M93.5652 80.0372H88.3709C87.4524 80.0372 86.7069 79.291 86.7069 78.3734C86.7069 77.4556 87.4534 76.7094 88.3709 76.7094H93.5652C94.4838 76.7094 95.2293 77.4556 95.2293 78.3734C95.2293 79.291 94.4841 80.0372 93.5652 80.0372ZM78.5408 80.0372H47.6084C46.6899 80.0372 45.9443 79.291 45.9443 78.3734C45.9443 77.4556 46.6899 76.7094 47.6084 76.7094H78.542C79.4602 76.7094 80.2058 77.4556 80.2058 78.3734C80.2058 79.291 79.459 80.0372 78.5408 80.0372Z" fill="black"/>
<path fill-rule="evenodd" clip-rule="evenodd" d="M93.5642 87.4103H62.6321C61.7136 87.4103 60.9681 86.6638 60.9681 85.7462C60.9681 84.8287 61.7136 84.0822 62.6321 84.0822H93.5642C94.4827 84.0822 95.2283 84.8287 95.2283 85.7462C95.2283 86.6638 94.4827 87.4103 93.5642 87.4103ZM52.8017 87.4103H47.6074C46.6889 87.4103 45.9434 86.6638 45.9434 85.7462C45.9434 84.8287 46.6889 84.0822 47.6074 84.0822H52.8017C53.7203 84.0822 54.4658 84.8287 54.4658 85.7462C54.4658 86.6638 53.7203 87.4103 52.8017 87.4103Z" fill="black"/>
<path fill-rule="evenodd" clip-rule="evenodd" d="M36.7846 26.0541C36.2945 26.0541 35.8267 25.8379 35.5087 25.4589C35.1598 25.0426 35.0363 24.4824 35.1772 23.9577L37.0817 16.8847C37.3208 15.996 38.2338 15.4699 39.1211 15.7107C40.0085 15.9502 40.5346 16.8628 40.2952 17.7502L39.0088 22.5262L43.9365 22.0951C44.8435 22.006 45.6592 22.6926 45.7391 23.6075C45.819 24.5224 45.1416 25.3305 44.2267 25.4105L36.9297 26.0486C36.8802 26.0515 36.8317 26.0541 36.7846 26.0541Z" fill="black"/>
<path fill-rule="evenodd" clip-rule="evenodd" d="M104.462 89.8722C104.176 89.8722 103.889 89.7982 103.633 89.6501C103.162 89.3799 102.853 88.8971 102.804 88.3549L102.157 81.0586C102.076 80.143 102.753 79.3355 103.669 79.2533C104.572 79.1737 105.391 79.8495 105.474 80.7651L105.91 85.6924L110.388 83.5917C111.217 83.1999 112.21 83.5593 112.601 84.3913C112.992 85.2233 112.634 86.2136 111.802 86.6044L105.17 89.7153C104.945 89.8188 104.703 89.8722 104.462 89.8722Z" fill="black"/>
<path fill-rule="evenodd" clip-rule="evenodd" d="M105.922 126.563C101.886 126.563 98.7577 125.349 98.5562 125.269C97.7026 124.931 97.2843 123.962 97.624 123.109C97.9614 122.254 98.9333 121.839 99.78 122.175C99.8462 122.2 106.261 124.662 111.842 121.969C115.214 120.344 117.667 117.132 119.135 112.422C119.293 111.618 120.213 107.879 124.02 105.643C128.044 103.279 133.732 103.449 140.921 106.144C141.78 106.466 142.217 107.425 141.894 108.286C141.572 109.146 140.613 109.583 139.752 109.26C133.64 106.968 128.78 106.707 125.706 108.514C122.912 110.156 122.406 113.04 122.402 113.068C122.389 113.149 122.371 113.23 122.346 113.309C120.594 119.004 117.538 122.93 113.261 124.983C110.765 126.177 108.198 126.563 105.922 126.563Z" fill="black"/>
</g>
<defs>
<clipPath id="clip0_20_1966">
<rect width="142" height="142" fill="white"/>
</clipPath>
</defs>
</svg>
