<svg width="142" height="142" viewBox="0 0 142 142" fill="none" xmlns="http://www.w3.org/2000/svg">
<path d="M123.065 97.2667V46.8367" stroke="black" stroke-width="3" stroke-linecap="round" stroke-linejoin="round"/>
<path d="M19.4355 44.147V94.6967" stroke="black" stroke-width="3" stroke-linecap="round" stroke-linejoin="round"/>
<path d="M53.0645 34.6476V93.2862" stroke="black" stroke-width="3" stroke-linecap="round" stroke-linejoin="round"/>
<path d="M65.126 58.6523H110.473" stroke="black" stroke-width="3" stroke-linecap="round" stroke-linejoin="round"/>
<path d="M112.979 71.8416H62.7002" stroke="black" stroke-width="3" stroke-linecap="round" stroke-linejoin="round"/>
<path d="M66.3896 84.0212H109.209" stroke="black" stroke-width="3" stroke-linecap="round" stroke-linejoin="round"/>
<path d="M42.9578 48.6582H30.9668" stroke="black" stroke-width="3" stroke-linecap="round" stroke-linejoin="round"/>
<path d="M42.9578 58.3611H30.9668" stroke="black" stroke-width="3" stroke-linecap="round" stroke-linejoin="round"/>
<path d="M96.7575 117.122H106.918C108.559 117.119 110.183 117.465 111.681 118.138C113.179 118.81 114.518 119.794 115.61 121.024C116.906 122.493 118.495 123.673 120.274 124.488C122.053 125.304 123.982 125.736 125.938 125.758C127.894 125.78 129.833 125.39 131.63 124.615C133.427 123.839 135.041 122.694 136.369 121.254L126.516 118.215C126.116 118.091 125.743 117.89 125.42 117.622C125.097 117.354 124.83 117.025 124.634 116.654C124.438 116.282 124.317 115.876 124.277 115.457C124.238 115.039 124.281 114.617 124.404 114.215L125.931 109.239C126.055 108.837 126.256 108.464 126.523 108.14C126.79 107.816 127.118 107.549 127.488 107.352C127.859 107.155 128.264 107.034 128.681 106.994C129.098 106.955 129.519 106.998 129.92 107.122L140.015 110.235C139.276 103.182 133.326 97.687 126.097 97.687C124.257 97.6845 122.435 98.0468 120.736 98.7532C119.037 99.4595 117.493 100.496 116.195 101.803C114.032 103.974 111.076 105.162 108.015 105.162H38.7334C35.1577 105.162 32.154 103.464 29.9458 100.644C28.5204 98.8221 26.7067 97.3427 24.6375 96.3142C22.5683 95.2857 20.2959 94.7342 17.9867 94.6999C15.6775 94.6657 13.3898 95.1497 11.2912 96.1164C9.19259 97.0832 7.33611 98.5082 5.85765 100.287L15.4248 103.239C15.7793 103.348 16.109 103.526 16.3949 103.763C16.6808 104 16.9173 104.291 17.091 104.619C17.2647 104.948 17.3722 105.308 17.4072 105.678C17.4422 106.048 17.4042 106.422 17.2952 106.777L15.1497 113.774C15.0409 114.129 14.8634 114.46 14.6271 114.746C14.3909 115.033 14.1007 115.27 13.773 115.445C13.4453 115.619 13.0867 115.726 12.7175 115.762C12.3482 115.797 11.9758 115.759 11.6213 115.649L2.48926 112.832C3.72153 120.173 10.0897 125.764 17.7612 125.764C19.8761 125.765 21.9688 125.331 23.9095 124.487C25.8501 123.644 27.5974 122.411 29.0431 120.863C31.2661 118.491 34.0167 117.119 37.2624 117.119H82.0324" stroke="black" stroke-width="3" stroke-linecap="round" stroke-linejoin="round"/>
<path d="M29.043 120.863C29.043 120.863 33.2563 117.897 34.2114 112.63" stroke="black" stroke-width="3" stroke-linecap="round" stroke-linejoin="round"/>
<path d="M114.826 102.969C114.826 102.969 111.477 106.024 111.381 109.376" stroke="black" stroke-width="3" stroke-linecap="round" stroke-linejoin="round"/>
<path d="M49.4923 27.2648H125.525V34.6477H16.9746V27.2648H43.475H49.4923Z" stroke="black" stroke-width="3" stroke-linecap="round" stroke-linejoin="round"/>
<path d="M110.537 27.2643H97.0734V19.4595C97.0734 18.3406 97.5167 17.2675 98.3057 16.4763C99.0948 15.6852 100.165 15.2407 101.281 15.2407H106.33C107.446 15.2407 108.516 15.6852 109.305 16.4763C110.094 17.2675 110.537 18.3406 110.537 19.4595V27.2643Z" stroke="black" stroke-width="3" stroke-linecap="round" stroke-linejoin="round"/>
<path d="M85.7383 27.2643H72.2746V19.4595C72.2746 18.9054 72.3834 18.3568 72.5949 17.845C72.8063 17.3332 73.1162 16.8681 73.5069 16.4763C73.8976 16.0846 74.3614 15.7738 74.8719 15.5618C75.3823 15.3498 75.9294 15.2407 76.4819 15.2407H81.531C82.0835 15.2407 82.6306 15.3498 83.141 15.5618C83.6515 15.7738 84.1153 16.0846 84.506 16.4763C84.8967 16.8681 85.2066 17.3332 85.418 17.845C85.6295 18.3568 85.7383 18.9054 85.7383 19.4595V27.2643Z" stroke="black" stroke-width="3" stroke-linecap="round" stroke-linejoin="round"/>
<path d="M87.8005 96.453C101.975 96.453 113.465 84.9312 113.465 70.7184C113.465 56.5056 101.975 44.9838 87.8005 44.9838C73.6263 44.9838 62.1357 56.5056 62.1357 70.7184C62.1357 84.9312 73.6263 96.453 87.8005 96.453Z" stroke="black" stroke-width="3" stroke-linecap="round" stroke-linejoin="round"/>
</svg>
