<svg width="142" height="142" viewBox="0 0 142 142" fill="none" xmlns="http://www.w3.org/2000/svg">
<path d="M128.688 71H108.113C111.573 64.5779 113.307 57.3679 113.146 50.0749C112.985 42.7819 110.934 35.6555 107.194 29.3924C103.454 23.1293 98.153 17.9439 91.8088 14.3431C85.4647 10.7424 78.2948 8.84943 71 8.84943C63.7052 8.84943 56.5353 10.7424 50.1912 14.3431C43.847 17.9439 38.5458 23.1293 34.8058 29.3924C31.0659 35.6555 29.0151 42.7819 28.854 50.0749C28.693 57.3679 30.4271 64.5779 33.887 71H13.3125C10.3713 71.0035 7.55164 72.1734 5.47193 74.2532C3.39221 76.3329 2.22227 79.1526 2.21875 82.0937V117.594C2.22227 120.535 3.39221 123.355 5.47193 125.434C7.55164 127.514 10.3713 128.684 13.3125 128.687H128.688C131.629 128.684 134.448 127.514 136.528 125.434C138.608 123.355 139.778 120.535 139.781 117.594V82.0937C139.778 79.1526 138.608 76.3329 136.528 74.2532C134.448 72.1734 131.629 71.0035 128.688 71ZM71 13.3125C80.4443 13.309 89.5458 16.8505 96.504 23.2363C103.462 29.6221 107.77 38.387 108.575 47.7969C109.381 57.2068 106.625 66.5761 100.853 74.0513C95.0806 81.5265 86.7131 86.563 77.4055 88.1642C76.8287 88.2633 76.3143 88.5863 75.9744 89.0628L71 96.0253L66.0256 89.0628C65.6857 88.5863 65.1714 88.2633 64.5945 88.1642C55.2869 86.563 46.9194 81.5265 41.1475 74.0513C35.3755 66.5761 32.6195 57.2068 33.4248 47.7969C34.23 38.387 38.5379 29.6221 45.496 23.2363C52.4542 16.8505 61.5557 13.309 71 13.3125ZM117.594 115.375H24.4062V113.156C24.4062 112.568 24.64 112.003 25.0561 111.587C25.4722 111.171 26.0366 110.937 26.625 110.937H115.375C115.963 110.937 116.528 111.171 116.944 111.587C117.36 112.003 117.594 112.568 117.594 113.156V115.375ZM24.4062 119.812H117.594V124.25H24.4062V119.812ZM135.344 117.594C135.344 119.359 134.642 121.052 133.394 122.3C132.146 123.549 130.453 124.25 128.688 124.25H122.031V113.156C122.031 111.391 121.33 109.698 120.082 108.45C118.833 107.201 117.14 106.5 115.375 106.5H26.625C24.8597 106.5 23.1666 107.201 21.9183 108.45C20.67 109.698 19.9688 111.391 19.9688 113.156V124.25H13.3125C11.5472 124.25 9.85411 123.549 8.60582 122.3C7.35753 121.052 6.65625 119.359 6.65625 117.594V82.0937C6.65625 80.3284 7.35753 78.6353 8.60582 77.3871C9.85411 76.1388 11.5472 75.4375 13.3125 75.4375H36.6249C42.8872 84.2608 52.3125 90.3274 62.9371 92.3732L69.1939 101.133C69.3992 101.42 69.6702 101.655 69.9843 101.817C70.2984 101.978 70.6467 102.063 71 102.063C71.3533 102.063 71.7016 101.978 72.0157 101.817C72.3299 101.655 72.6008 101.42 72.8061 101.133L79.0629 92.3732C89.6875 90.3274 99.1128 84.2608 105.375 75.4375H128.688C130.453 75.4375 132.146 76.1388 133.394 77.3871C134.642 78.6353 135.344 80.3284 135.344 82.0937V117.594Z" fill="black"/>
<path d="M124.25 79.875C122.934 79.875 121.647 80.2654 120.552 80.9968C119.457 81.7282 118.604 82.7677 118.1 83.984C117.597 85.2003 117.465 86.5386 117.722 87.8298C117.978 89.121 118.612 90.307 119.543 91.2379C120.474 92.1688 121.66 92.8028 122.951 93.0596C124.243 93.3164 125.581 93.1846 126.797 92.6808C128.014 92.177 129.053 91.3239 129.784 90.2293C130.516 89.1346 130.906 87.8477 130.906 86.5312C130.906 84.7659 130.205 83.0729 128.957 81.8246C127.708 80.5763 126.015 79.875 124.25 79.875ZM124.25 88.75C123.811 88.75 123.382 88.6199 123.017 88.3761C122.652 88.1323 122.368 87.7858 122.2 87.3803C122.032 86.9749 121.988 86.5288 122.074 86.0984C122.159 85.668 122.371 85.2727 122.681 84.9624C122.991 84.6521 123.387 84.4407 123.817 84.3551C124.248 84.2695 124.694 84.3135 125.099 84.4814C125.505 84.6493 125.851 84.9337 126.095 85.2986C126.339 85.6635 126.469 86.0924 126.469 86.5312C126.469 87.1197 126.235 87.684 125.819 88.1001C125.403 88.5162 124.838 88.75 124.25 88.75Z" fill="black"/>
<path d="M46.6385 71.8875L51.9502 66.5625H55.4691V70.0815L50.1552 75.3931C49.8904 75.6575 49.6968 75.9844 49.5923 76.3437C49.4879 76.7029 49.4759 77.0827 49.5576 77.4478C49.6393 77.8129 49.812 78.1514 50.0596 78.4319C50.3072 78.7123 50.6218 78.9256 50.9739 79.0519C52.4126 79.5873 53.9341 79.866 55.4691 79.875C58.9987 79.8715 62.3828 78.4678 64.8786 75.972C67.3744 73.4762 68.7781 70.0921 68.7816 66.5625C68.7773 65.5108 68.6424 64.4637 68.38 63.4452L69.891 61.9342L87.1817 79.2249C87.5978 79.6409 88.162 79.8745 88.7504 79.8745C89.3387 79.8745 89.9029 79.6409 90.319 79.2249L99.194 70.3499C99.61 69.9338 99.8436 69.3696 99.8436 68.7813C99.8436 68.1929 99.61 67.6287 99.194 67.2126L81.9033 49.9219L83.4143 48.4109C84.4328 48.6733 85.4799 48.8082 86.5316 48.8125C88.6712 48.8287 90.7827 48.3251 92.6846 47.3449C94.5865 46.3648 96.2219 44.9373 97.4503 43.1854C98.6786 41.4335 99.4631 39.4095 99.7363 37.2874C100.01 35.1652 99.7633 33.0085 99.0187 31.0026C98.892 30.651 98.6786 30.3372 98.3982 30.0901C98.1179 29.843 97.7796 29.6708 97.4149 29.5893C97.0502 29.5079 96.6708 29.5199 96.312 29.6242C95.9531 29.7285 95.6264 29.9218 95.3622 30.1861L90.0505 35.5H86.5316V31.9811L91.8566 26.6694C92.1209 26.4052 92.3142 26.0785 92.4185 25.7197C92.5228 25.3608 92.5348 24.9814 92.4534 24.6167C92.3719 24.252 92.1997 23.9138 91.9526 23.6334C91.7056 23.353 91.3917 23.1396 91.0401 23.0129C89.0334 22.2771 86.8786 22.0373 84.7593 22.3141C82.64 22.5909 80.619 23.376 78.8686 24.6025C77.1182 25.829 75.6903 27.4605 74.7066 29.358C73.7229 31.2555 73.2126 33.3627 73.2191 35.5C73.2234 36.5517 73.3583 37.5989 73.6207 38.6174L71.0004 41.2377L68.7816 39.019V35.5C68.7815 34.9116 68.5476 34.3474 68.1315 33.9314L57.0378 22.8376C56.6217 22.4217 56.0574 22.188 55.4691 22.188C54.8808 22.188 54.3165 22.4217 53.9004 22.8376L42.8067 33.9314C42.3907 34.3474 42.1571 34.9117 42.1571 35.5C42.1571 36.0883 42.3907 36.6526 42.8067 37.0687L53.9004 48.1624C54.3164 48.5785 54.8807 48.8124 55.4691 48.8125H58.988L61.2068 51.0313L58.5864 53.6516C57.568 53.3892 56.5208 53.2544 55.4691 53.25C53.3295 53.2338 51.218 53.7374 49.3161 54.7176C47.4142 55.6978 45.7788 57.1252 44.5504 58.8771C43.3221 60.629 42.5376 62.653 42.2644 64.7752C41.9912 66.8973 42.2374 69.054 42.982 71.0599C43.1087 71.4115 43.3221 71.7254 43.6025 71.9724C43.8828 72.2195 44.2211 72.3917 44.5858 72.4732C44.9505 72.5546 45.3299 72.5426 45.6887 72.4383C46.0476 72.334 46.3743 72.1407 46.6385 71.8764V71.8875ZM88.7504 74.5189L71.9189 57.6875L77.6566 51.9498L94.488 68.7813L88.7504 74.5189ZM77.701 40.825C77.9989 40.5269 78.2057 40.1501 78.2973 39.7387C78.3888 39.3273 78.3613 38.8983 78.2179 38.502C77.856 37.5421 77.666 36.5259 77.6566 35.5C77.6595 33.3153 78.4669 31.2082 79.9247 29.581C81.3825 27.9537 83.3885 26.9204 85.5598 26.6783L82.7442 29.4939C82.3281 29.9099 82.0942 30.4741 82.0941 31.0625V37.7188C82.0941 38.3072 82.3279 38.8716 82.744 39.2877C83.1601 39.7038 83.7244 39.9375 84.3129 39.9375H90.9691C91.5575 39.9374 92.1218 39.7035 92.5378 39.2874L95.3534 36.4718C95.1112 38.6431 94.0779 40.6491 92.4507 42.1069C90.8234 43.5647 88.7163 44.3721 86.5316 44.375C85.5095 44.3643 84.4972 44.1743 83.5407 43.8137C83.1444 43.6703 82.7154 43.6428 82.304 43.7343C81.8926 43.8259 81.5158 44.0327 81.2177 44.3306L78.6728 46.8778C78.3598 46.7117 78.0109 46.6248 77.6566 46.6248C77.3023 46.6248 76.9534 46.7117 76.6404 46.8778L74.1377 44.375L77.701 40.825ZM56.3877 44.375L47.5127 35.5L55.4691 27.5436L64.3441 36.4186V39.9375C64.3442 40.5259 64.5781 41.0902 64.9942 41.5062L73.4099 49.9219L69.891 53.4408L61.4753 45.0251C61.0593 44.609 60.495 44.3751 59.9066 44.375H56.3877ZM55.4691 57.6875C56.4912 57.6982 57.5035 57.8882 58.46 58.2489C58.8578 58.3945 59.289 58.4232 59.7026 58.3316C60.1162 58.24 60.495 58.0319 60.7941 57.7319L64.3441 54.1686L66.8469 56.6713C66.6808 56.9843 66.5939 57.3332 66.5939 57.6875C66.5939 58.0418 66.6808 58.3907 66.8469 58.7037L64.2997 61.2486C64.0018 61.5467 63.795 61.9235 63.7034 62.3349C63.6119 62.7463 63.6394 63.1753 63.7828 63.5716C64.1434 64.5281 64.3334 65.5404 64.3441 66.5625C64.3413 68.7475 63.5339 70.8549 62.0762 72.4825C60.6184 74.1101 58.6124 75.1438 56.4409 75.3865L59.2565 72.5687C59.6726 72.1527 59.9065 71.5884 59.9066 71V64.3438C59.9066 63.7553 59.6728 63.191 59.2567 62.7749C58.8407 62.3588 58.2763 62.125 57.6879 62.125H51.0316C50.4432 62.1251 49.8789 62.359 49.4629 62.7751L46.6474 65.5907C46.8895 63.4194 47.9228 61.4134 49.55 59.9556C51.1773 58.4978 53.2844 57.6904 55.4691 57.6875Z" fill="black"/>
</svg>
