<svg width="142" height="142" viewBox="0 0 142 142" fill="none" xmlns="http://www.w3.org/2000/svg">
<path d="M124.839 58.7958C124.837 52.887 122.168 47.3532 117.587 43.661C119.121 38.0059 118.031 31.9442 114.549 27.1537C111.059 22.3521 105.611 19.4411 99.7763 19.1671C97.6918 13.7003 93.2523 9.445 87.6273 7.6172C82.0305 5.79826 75.9616 6.6141 71.0074 9.83262C66.1039 6.62475 60.0068 5.78828 54.3732 7.6183C48.7473 9.44589 44.3065 13.7015 42.222 19.1702C36.3685 19.452 30.9354 22.3608 27.4524 27.1526C23.9736 31.9367 22.8816 37.9919 24.4147 43.6546C19.845 47.3262 17.1616 52.8741 17.1616 58.798C17.1616 64.7165 19.8419 70.2601 24.4138 73.9361C22.8798 79.5901 23.9707 85.6517 27.4526 90.4402C30.5413 94.6903 35.1648 97.4502 40.2315 98.2203L29.8371 118.987C29.0972 120.448 29.2261 122.19 30.1741 123.534C31.1253 124.884 32.7299 125.592 34.3538 125.387L44.6471 124.105L49.7997 133.129C50.5982 134.506 52.0617 135.345 53.6479 135.345C53.6987 135.345 53.7497 135.344 53.8005 135.343C55.4342 135.288 56.8957 134.346 57.6074 132.899L69.864 108.409C70.2421 108.197 70.626 107.999 70.9925 107.761C71.3575 108 71.7502 108.179 72.1278 108.391L84.3862 132.888C85.1055 134.347 86.5681 135.287 88.2018 135.343C88.2517 135.344 88.3014 135.345 88.3535 135.345C89.9375 135.345 91.4021 134.505 92.2082 133.115L97.3541 124.105L107.64 125.386C109.291 125.591 110.875 124.882 111.826 123.535C112.773 122.19 112.903 120.448 112.168 118.997L101.767 98.2159C106.847 97.4417 111.462 94.6852 114.545 90.4431C118.014 85.6741 119.11 79.6451 117.581 73.9434C122.152 70.2718 124.839 64.7218 124.839 58.7958ZM113.76 71.2481C112.909 71.8158 112.567 72.9197 112.918 73.8806C114.653 78.6463 113.94 83.7316 110.957 87.8334C107.975 91.9339 103.371 94.1624 98.2401 93.9978C97.2521 93.947 96.3204 94.6315 96.0408 95.6066C94.6497 100.488 91.0833 104.187 86.2557 105.755C81.4259 107.323 76.371 106.426 72.42 103.334C72.0116 102.993 71.5079 102.823 71.0029 102.823C70.5155 102.823 70.0278 102.981 69.6237 103.299C65.6282 106.428 60.5755 107.328 55.7435 105.756C50.9159 104.187 47.3495 100.488 45.9563 95.6055C45.6768 94.6239 44.7267 93.9771 43.7072 93.9989C38.6609 94.2157 34.0239 91.9339 31.0415 87.8312C28.059 83.7285 27.3461 78.6432 29.112 73.795C29.4273 72.8491 29.0417 71.7874 28.215 71.2305C24.0105 68.3985 21.5989 63.8669 21.5989 58.7967C21.5989 53.7264 24.0105 49.1948 28.239 46.3455C29.0905 45.7777 29.434 44.6739 29.083 43.7118C27.3463 38.9482 28.0603 33.8628 31.0417 29.7612C34.0241 25.6596 38.6296 23.4311 43.7573 23.5957C44.7345 23.6457 45.6792 22.9621 45.9577 21.9869C47.3508 17.1052 50.9175 13.4066 55.7437 11.8379C60.5735 10.2713 65.6296 11.1674 69.5794 14.2592C70.3821 14.9298 71.5532 14.9406 72.3757 14.295C76.3712 11.163 81.4284 10.2682 86.2559 11.8379C91.0835 13.4066 94.6499 17.1063 96.0411 21.988C96.3206 22.9696 97.1937 23.6672 98.2922 23.5946C103.386 23.3921 107.98 25.6616 110.959 29.7623C113.941 33.865 114.655 38.9504 112.944 43.6468C112.536 44.6228 112.907 45.7713 113.784 46.3628C117.988 49.1948 120.399 53.7264 120.402 58.7967C120.405 66.9317 113.762 71.2474 113.76 71.2481ZM53.6452 130.915L47.7657 120.62C47.3215 119.842 46.4505 119.399 45.5654 119.519L33.8 120.984L43.6424 101.319C46.0194 105.372 49.7903 108.488 54.3721 109.977C57.4674 110.983 60.6997 111.154 63.8117 110.59L53.6452 130.915ZM96.4351 119.519C95.5339 119.398 94.6756 119.842 94.2337 120.621L88.3595 130.913L78.1894 110.589C79.3195 110.792 80.4601 110.93 81.6123 110.93C83.6274 110.93 85.6555 110.616 87.6271 109.976C92.208 108.487 95.9794 105.372 98.3554 101.319L108.194 120.984L96.4351 119.519ZM70.9996 25.5156C52.6483 25.5156 37.7183 40.4456 37.7183 58.7969C37.7183 77.1482 52.6483 92.0781 70.9996 92.0781C89.3509 92.0781 104.281 77.1482 104.281 58.7969C104.281 40.4456 89.352 25.5156 70.9996 25.5156ZM70.9996 87.6406C55.0945 87.6406 42.1558 74.702 42.1558 58.7969C42.1558 42.8918 55.0945 29.9531 70.9996 29.9531C86.9047 29.9531 99.8433 42.8918 99.8433 58.7969C99.8433 74.702 86.9036 87.6406 70.9996 87.6406ZM88.0995 47.363C88.9661 48.2296 88.9661 49.6337 88.0995 50.5005L69.3701 69.2299C68.5858 70.0153 67.5414 70.4475 66.431 70.4475C65.3216 70.4475 64.2772 70.0153 63.4929 69.2299L53.8997 59.6367C53.033 58.77 53.033 57.366 53.8997 56.4991C54.7663 55.6323 56.1704 55.6325 57.0372 56.4991L66.4323 65.8931L84.9624 47.363C85.829 46.4964 87.2326 46.4964 88.0995 47.363Z" fill="black"/>
</svg>
