<svg width="142" height="142" viewBox="0 0 142 142" fill="none" xmlns="http://www.w3.org/2000/svg">
<path fill-rule="evenodd" clip-rule="evenodd" d="M81.133 96.0936H10.1372C5.82794 96.0936 2.22754 92.31 2.22754 87.5221V12.2827C2.22754 7.49509 5.82794 3.71121 10.1372 3.71121H131.863C136.172 3.71121 139.773 7.49509 139.773 12.2827V87.5221C139.773 91.1075 137.743 94.139 134.925 95.4265C134.343 97.8216 132.926 99.8814 131.054 101.234C130.336 101.756 129.971 102.637 130.109 103.509C130.592 106.508 129.657 109.809 127.295 112.215L135.908 127.138C136.291 127.802 136.25 128.628 135.802 129.251C135.355 129.873 134.585 130.175 133.834 130.023L124.763 128.19L121.816 136.96C121.572 137.687 120.924 138.203 120.162 138.279C119.4 138.355 118.663 137.978 118.28 137.314L108.434 120.263C108.269 120.27 108.103 120.275 107.936 120.275C107.769 120.275 107.604 120.27 107.439 120.263L97.5958 137.314C97.213 137.978 96.4766 138.355 95.7142 138.279C94.9519 138.203 94.3051 137.687 94.0606 136.961L91.1098 128.19L82.0379 130.023C81.287 130.175 80.5166 129.873 80.0694 129.25C79.6223 128.628 79.5811 127.802 79.9642 127.138L88.5791 112.217C86.2158 109.81 85.28 106.509 85.7625 103.514C85.9012 102.637 85.5361 101.756 84.8223 101.237C83.1233 100.01 81.8004 98.2033 81.133 96.0936ZM134.923 90.5501C135.522 89.7281 135.875 88.6665 135.875 87.5221V12.2827C135.875 9.75456 134.139 7.60925 131.863 7.60925H10.1372C7.8616 7.60925 6.12558 9.75456 6.12558 12.2827V87.5221C6.12558 90.0506 7.8616 92.1956 10.1372 92.1956H80.6864C80.9081 89.3308 82.3108 86.7915 84.342 85.1212H23.2096C22.1332 85.1212 21.2605 84.2486 21.2605 83.1722C21.2605 79.841 18.5561 77.1364 15.225 77.1364C14.1486 77.1364 13.276 76.2637 13.276 75.1873V24.6175C13.276 23.5411 14.1486 22.6685 15.225 22.6685C18.5561 22.6685 21.2605 19.9641 21.2605 16.6329C21.2605 15.5565 22.1332 14.6839 23.2096 14.6839H118.791C119.867 14.6839 120.74 15.5565 120.74 16.6329C120.74 19.9641 123.444 22.6685 126.775 22.6685C127.852 22.6685 128.724 23.5411 128.724 24.6175V75.1873C128.724 75.311 128.713 75.4318 128.691 75.5487C130.01 77.6721 130.482 80.164 130.11 82.4733C129.971 83.3507 130.336 84.2316 131.05 84.7506C132.922 86.1035 134.338 88.1597 134.923 90.5501ZM124.075 114.435C122.274 115.222 120.307 115.465 118.456 115.168C117.579 115.029 116.698 115.394 116.179 116.108C115.218 117.438 113.902 118.537 112.364 119.272C114.666 123.259 119.496 131.625 119.496 131.625L121.616 125.318C121.929 124.387 122.886 123.834 123.849 124.029L130.373 125.347L124.075 114.435ZM103.509 119.273C101.971 118.539 100.656 117.44 99.6961 116.112C99.1737 115.394 98.2928 115.029 97.421 115.167C95.568 115.465 93.6004 115.222 91.7992 114.436L85.4994 125.347L92.023 124.029C92.9859 123.834 93.9431 124.386 94.2563 125.318L96.3785 131.626L103.509 119.273ZM85.6445 81.2232C85.5927 79.4933 85.9947 77.7199 86.852 76.119H41.2397C40.1638 76.119 39.2906 75.2458 39.2906 74.17C39.2906 73.0944 40.1638 72.2209 41.2397 72.2209H90.5203C92.6359 70.9165 95.1142 70.4509 97.4154 70.8204L97.4213 70.8213C98.2964 70.9574 99.1748 70.5927 99.6927 69.8801C101.489 67.3943 104.525 65.7134 107.936 65.7134C111.348 65.7134 114.383 67.3943 116.176 69.8757C116.698 70.5943 117.579 70.9591 118.451 70.8213C120.566 70.4805 122.831 70.8452 124.826 71.918C124.826 60.984 124.826 26.375 124.826 26.375C120.906 25.594 117.814 22.5023 117.033 18.582C117.033 18.582 24.967 18.582 24.967 18.5817C24.186 22.5023 21.0943 25.594 17.174 26.375C17.174 35.1096 17.174 73.4299 17.1737 73.4299C21.0943 74.2112 24.186 77.3026 24.967 81.2232H85.6445ZM131.278 93.7142C131.305 93.4778 131.319 93.2372 131.319 92.9939C131.319 90.8928 130.298 89.0165 128.767 87.91L128.762 87.9069C126.859 86.5231 125.892 84.189 126.26 81.8647L126.26 81.8591C126.561 79.9945 125.955 77.9455 124.47 76.46C122.984 74.9743 120.936 74.3693 119.071 74.6697L119.065 74.6706C116.741 75.0381 114.407 74.0714 113.023 72.1677L113.02 72.1633C111.914 70.6322 110.037 69.6115 107.936 69.6115C105.835 69.6115 103.959 70.6322 102.852 72.1633L102.849 72.1677C101.465 74.0711 99.1311 75.0381 96.8068 74.6706L96.8012 74.6697C94.9365 74.3693 92.8876 74.9743 91.4021 76.46C89.9164 77.9457 89.3114 79.9945 89.6118 81.8591L89.6127 81.8647C89.9802 84.189 89.0135 86.5231 87.1098 87.9069L87.1054 87.9103C85.5743 89.0165 84.5536 90.8931 84.5536 92.9939C84.5536 95.0949 85.5743 96.9715 87.1054 98.0777L87.1098 98.0811C89.0132 99.4646 89.9802 101.799 89.6127 104.123L89.6118 104.129C89.3114 105.994 89.9164 108.042 91.4021 109.528C92.8876 111.013 94.9365 111.619 96.8012 111.318L96.8068 111.317C99.1311 110.95 101.465 111.917 102.849 113.82L102.852 113.825C103.959 115.356 105.835 116.377 107.936 116.377C110.037 116.377 111.914 115.356 113.02 113.825L113.023 113.82C114.407 111.917 116.741 110.95 119.065 111.317L119.071 111.318C120.936 111.619 122.984 111.013 124.47 109.528C125.955 108.042 126.561 105.994 126.26 104.129L126.26 104.123C125.892 101.799 126.859 99.4646 128.762 98.0811L128.767 98.0777C130.104 97.1119 131.051 95.5585 131.27 93.7815C131.273 93.759 131.275 93.7367 131.278 93.7142ZM107.936 107.29C100.061 107.29 93.6396 100.869 93.6396 92.9939C93.6396 85.1218 100.061 78.6975 107.936 78.6975C115.808 78.6975 122.232 85.1218 122.232 92.9939C122.232 100.869 115.808 107.29 107.936 107.29ZM107.936 103.392C113.662 103.392 118.334 98.722 118.334 92.9939C118.334 87.2682 113.662 82.5956 107.936 82.5956C102.208 82.5956 97.5377 87.2682 97.5377 92.9939C97.5377 98.722 102.208 103.392 107.936 103.392ZM55.4285 68.6963C54.3527 68.6963 53.4795 67.8228 53.4795 66.7472C53.4795 65.6714 54.3527 64.7982 55.4285 64.7982H86.5716C87.6475 64.7982 88.5207 65.6714 88.5207 66.7472C88.5207 67.8228 87.6475 68.6963 86.5716 68.6963H55.4285ZM70.4179 63.2404C65.6392 61.7447 60.528 58.1022 57.2102 53.534C54.9134 50.3713 53.4795 46.7723 53.4795 43.1488V29.5496C53.4795 28.608 54.1528 27.8011 55.0791 27.6324C58.7881 26.9563 62.274 25.3645 65.3972 23.2471C65.7199 23.0282 66.1011 22.9113 66.4909 22.9113H75.5068C75.8966 22.9113 76.2778 23.0282 76.6005 23.2471C79.7236 25.3645 83.2121 26.9563 86.9211 27.6324C87.8474 27.8011 88.5207 28.608 88.5207 29.5496V43.1488C88.5207 46.7734 87.0867 50.3724 84.79 53.5351C81.4722 58.1031 76.361 61.7447 71.5823 63.2404C71.2033 63.359 70.7968 63.359 70.4179 63.2404ZM71.0001 59.3259C74.8914 57.9494 78.9485 54.9445 81.6359 51.2445C83.4318 48.7717 84.6226 45.9829 84.6226 43.1488V31.125C81.1706 30.2764 77.9013 28.7614 74.9171 26.8093C74.9171 26.8093 67.0806 26.8093 67.0809 26.809C64.0967 28.7614 60.829 30.2764 57.3776 31.1247V43.1488C57.3776 45.9821 58.5684 48.7706 60.3643 51.2433C63.0517 54.9437 67.1087 57.9494 71.0001 59.3259ZM78.1864 36.5135C79.0214 35.8355 80.2499 35.9628 80.9278 36.7978C81.6061 37.6328 81.4788 38.8612 80.6438 39.5395L68.2069 49.6404C67.7817 49.9857 67.231 50.136 66.6894 50.055C66.1476 49.9737 65.6651 49.6685 65.3599 49.2139L60.9646 42.6679C60.3648 41.7747 60.6032 40.563 61.4961 39.9633C62.3893 39.3635 63.6011 39.6019 64.2008 40.4948L67.4061 45.2688L78.1864 36.5135Z" fill="black"/>
</svg>
