<svg width="142" height="142" viewBox="0 0 142 142" fill="none" xmlns="http://www.w3.org/2000/svg">
<path d="M128.745 89.8572C128.614 89.7152 128.464 89.5909 128.299 89.4888L106.915 76.0587C102.458 73.2587 96.7266 73.6159 92.653 76.9529L75.9414 90.6404C73.0792 92.9856 68.9212 92.9856 66.0591 90.6404L49.3452 76.9529C45.2738 73.6181 39.5406 73.2565 35.0853 76.0587L13.6988 89.4888C13.5346 89.5909 13.3837 89.7152 13.2528 89.8572C9.16365 94.2569 6.91162 99.9924 6.91162 106.001V139.531C6.91162 140.755 7.90562 141.749 9.13037 141.749H132.87C134.095 141.749 135.089 140.755 135.089 139.531V106.001C135.089 99.9924 132.835 94.2569 128.745 89.8572ZM130.649 137.314H11.3491V106.003C11.3491 101.213 13.1086 96.6377 16.3125 93.0877L37.4461 79.8173C40.2838 78.0312 43.9403 78.2597 46.5341 80.3875L63.2457 94.075C67.7387 97.7559 74.2596 97.7581 78.7525 94.075L95.4641 80.3897C98.0601 78.2642 101.714 78.0357 104.554 79.8195L125.686 93.0899C128.887 96.6399 130.649 101.215 130.649 106.005V137.314Z" fill="black"/>
<path d="M109.243 113.578C110.041 113.578 110.778 113.15 111.173 112.455C111.568 111.761 111.557 110.906 111.149 110.221C108.972 106.578 104.969 104.317 100.705 104.317C96.6068 104.317 92.8483 106.345 90.5985 109.686H51.402C49.1522 106.342 45.3936 104.317 41.2956 104.317C37.0312 104.317 33.0286 106.58 30.852 110.221C30.4415 110.906 30.4326 111.758 30.8276 112.455C31.2203 113.15 31.9591 113.578 32.7579 113.578H38.4046V119.426H32.7579C31.9591 119.426 31.2225 119.855 30.8276 120.549C30.4326 121.244 30.4437 122.098 30.852 122.783C33.0352 126.438 37.0378 128.707 41.2956 128.707C45.4003 128.707 49.1589 126.673 51.4065 123.318H90.594C92.8394 126.673 96.6002 128.707 100.705 128.707C104.963 128.707 108.965 126.438 111.149 122.783C111.559 122.098 111.568 121.246 111.173 120.549C110.78 119.855 110.041 119.426 109.243 119.426H103.596V113.578H109.243ZM100.703 124.27C97.7961 124.27 95.1602 122.664 93.8245 120.081C93.4451 119.342 92.6841 118.881 91.8543 118.881H50.144C49.3142 118.881 48.5531 119.342 48.1737 120.081C46.8381 122.666 44.2022 124.27 41.2956 124.27C40.4503 124.27 39.6182 124.13 38.835 123.864H40.6211C41.8459 123.864 42.8399 122.87 42.8399 121.645V111.359C42.8399 110.134 41.8459 109.14 40.6211 109.14H38.8816C39.6515 108.887 40.4636 108.754 41.2934 108.754C44.1977 108.754 46.8336 110.354 48.1737 112.93C48.5554 113.664 49.3142 114.126 50.1418 114.126H91.8543C92.6819 114.126 93.4407 113.664 93.8223 112.93C95.1624 110.354 97.7983 108.754 100.703 108.754C101.532 108.754 102.347 108.89 103.114 109.14H101.375C100.15 109.14 99.1562 110.134 99.1562 111.359V121.645C99.1562 122.87 100.15 123.864 101.375 123.864H103.161C102.378 124.13 101.548 124.27 100.703 124.27Z" fill="black"/>
<path d="M42.8286 38.766C43.1903 39.0234 43.6096 39.2075 44.0866 39.2075H44.1066C43.5475 41.3553 43.2435 43.523 43.2435 45.6863C43.2435 61.2486 57.5877 83.3607 70.9779 83.3607C84.2549 83.3607 98.3196 61.8232 98.7211 46.525C98.7522 46.2476 98.7566 45.9658 98.7566 45.6863C98.7566 43.5141 98.4904 41.3375 97.9823 39.1942C98.4394 39.1787 98.841 39.0078 99.1893 38.7571C101.408 37.8763 102.908 35.7241 102.908 33.2613C102.908 31.1379 101.779 29.2476 100.088 28.2203C99.8372 20.1951 96.3338 12.9908 90.8424 7.86547C90.8069 7.82775 90.7936 7.77672 90.7558 7.739C90.7048 7.69019 90.6405 7.67466 90.585 7.63028C86.3849 3.80072 81.0732 1.19147 75.1869 0.33725C74.8563 0.142 74.4946 0 74.0841 0H67.9182C67.5078 0 67.1439 0.142 66.8155 0.33725C60.8981 1.19591 55.562 3.82734 51.3508 7.69241C51.3286 7.71238 51.2998 7.71681 51.2776 7.739C51.2621 7.75453 51.2554 7.77672 51.2399 7.79225C45.6997 12.9242 42.163 20.164 41.9167 28.2358C40.2038 29.2853 39.0967 31.1601 39.0967 33.2613C39.0967 35.7618 40.6431 37.9384 42.8308 38.7682L42.8286 38.766ZM71.0001 4.43972C71.2907 4.43972 71.5747 4.47078 71.8654 4.48187V10.6722H70.137V4.48187C70.4254 4.47078 70.7072 4.43972 71.0001 4.43972ZM67.916 15.1097H74.0819C75.3067 15.1097 76.3007 14.1157 76.3007 12.8909V5.03434C79.9128 5.82866 83.2343 7.39953 86.0654 9.58722C82.0561 14.5128 80.0082 20.468 79.9527 27.3394H62.0741C62.0186 20.4635 59.9662 14.504 55.9481 9.57613C58.7748 7.39509 62.0918 5.83087 65.6951 5.03656V12.8932C65.6951 14.1179 66.6891 15.1119 67.9138 15.1119L67.916 15.1097ZM96.9816 31.7747C97.0948 31.7747 97.2057 31.7925 97.3744 31.8413C98.0178 32.001 98.4682 32.5846 98.4682 33.2613C98.4682 33.9491 98.0178 34.5437 97.2612 34.7368C97.208 34.7523 97.097 34.7723 96.9839 34.7723H45.0185C44.9054 34.7723 44.7944 34.7545 44.6258 34.7057C43.9824 34.5459 43.532 33.9513 43.532 33.2635C43.532 32.589 43.9824 32.0055 44.739 31.8124C44.7944 31.7969 44.9031 31.7769 45.0163 31.7769H96.9794L96.9816 31.7747ZM94.2992 46.2254C93.9464 59.4337 81.6013 78.9232 70.9801 78.9232C60.359 78.9232 47.6832 58.5084 47.6832 45.6863C47.6832 43.5297 48.0249 41.3575 48.7016 39.2075H93.4117C94.013 41.342 94.3191 43.5186 94.3191 45.6863C94.3191 45.8061 94.3236 45.9259 94.2992 46.2254ZM95.6304 27.3372H84.3858C84.4302 21.564 86.0476 16.705 89.3181 12.6003C92.9014 16.5652 95.2222 21.6883 95.6304 27.3372ZM52.6976 12.5825C55.9791 16.6917 57.6011 21.5574 57.6454 27.335H46.3697C46.778 21.6772 49.1077 16.5497 52.6976 12.5825Z" fill="black"/>
</svg>
