<svg width="142" height="142" viewBox="0 0 142 142" fill="none" xmlns="http://www.w3.org/2000/svg">
<path d="M70.3122 25.0941C69.8685 24.6725 69.2694 24.4506 68.6703 24.4728C63.2344 24.7169 57.9316 25.915 52.9172 28.045C41.7791 32.7266 32.7044 41.8012 28.0228 52.9616C27.1132 55.1359 26.4032 57.3547 25.8263 59.6178L21.7216 54.1597C20.8785 53.0503 19.0147 53.0503 18.1716 54.1597L4.85909 71.9097C4.34878 72.5753 4.28221 73.485 4.6594 74.2394C5.03659 74.9937 5.81315 75.4597 6.63409 75.4597H11.2269C11.6263 80.8956 12.7578 86.2872 14.6438 91.5013C20.7453 108.208 33.8138 121.255 50.4988 127.334L52.0075 123.163C36.5428 117.549 24.4507 105.457 18.815 89.9925C16.8625 84.5344 15.7532 78.8766 15.5535 73.1522C15.5091 71.9541 14.5328 71.0222 13.3347 71.0222H11.0716L19.9466 59.1962L25.1163 66.0744C25.1163 66.0744 25.205 66.2075 25.2494 66.2741L28.8216 71.0222H26.6694C26.0703 71.0222 25.4935 71.2662 25.0719 71.71C24.6503 72.1537 24.4285 72.7306 24.4507 73.3519C24.6947 78.7878 25.8928 84.0906 28.0228 89.105C32.7044 100.243 41.7791 109.318 52.9394 113.999C55.1138 114.909 57.3325 115.619 59.5957 116.196L54.1375 120.301C53.5828 120.722 53.25 121.388 53.25 122.076C53.25 122.763 53.5828 123.429 54.1375 123.851L71.8875 137.163C72.2869 137.452 72.7528 137.607 73.2188 137.607C73.5516 137.607 73.9066 137.54 74.2172 137.363C74.9716 136.986 75.4375 136.209 75.4375 135.388V130.795C80.8735 130.396 86.265 129.264 91.4791 127.378C108.186 121.277 121.233 108.208 127.312 91.5234L123.141 90.0147C117.527 105.457 105.435 117.572 89.9703 123.207C84.5122 125.16 78.8544 126.269 73.13 126.469C71.9319 126.513 71 127.489 71 128.687V130.951L59.1741 122.076L66.0522 116.906C66.0522 116.906 66.1853 116.817 66.2519 116.773L71 113.201V115.353C71 115.952 71.2441 116.529 71.6878 116.95C72.1316 117.372 72.7085 117.572 73.3297 117.572C78.7656 117.327 84.0685 116.129 89.0828 113.999C100.221 109.318 109.296 100.243 113.977 89.0828C114.887 86.9084 115.597 84.6897 116.174 82.4266L120.278 87.8847C120.7 88.4394 121.366 88.7722 122.053 88.7722C122.741 88.7722 123.407 88.4394 123.828 87.8847L137.141 70.1347C137.651 69.4691 137.718 68.5594 137.341 67.805C136.963 67.0506 136.187 66.5847 135.366 66.5847H130.773C130.374 61.1487 129.242 55.7572 127.356 50.5431C121.255 33.8359 108.186 20.7897 91.5013 14.7103L89.9925 18.8816C105.457 24.495 117.549 36.5872 123.185 52.0519C125.138 57.51 126.247 63.1678 126.447 68.8922C126.491 70.0903 127.467 71.0222 128.665 71.0222H130.928L122.053 82.8481L116.884 75.97C116.884 75.97 116.795 75.8369 116.751 75.7703L113.178 71.0222H115.331C115.93 71.0222 116.507 70.7781 116.928 70.3344C117.35 69.8906 117.572 69.3137 117.549 68.6925C117.305 63.2566 116.107 57.9537 113.977 52.9394C109.296 41.8012 100.221 32.7266 89.0606 28.045C86.8863 27.1353 84.6675 26.4253 82.4044 25.8484L87.8625 21.7437C88.4172 21.3222 88.75 20.6566 88.75 19.9687C88.75 19.2809 88.4172 18.6153 87.8625 18.1937L70.1125 4.88125C69.4469 4.37093 68.5372 4.30437 67.7828 4.68156C67.0285 5.05875 66.5625 5.83531 66.5625 6.65625V11.2491C61.1266 11.6484 55.735 12.78 50.521 14.6659C33.8138 20.7675 20.7675 33.8359 14.6882 50.5209L18.8594 52.0297C24.4728 36.5872 36.565 24.4728 52.0297 18.8372C57.4878 16.8847 63.1457 15.7753 68.87 15.5756C70.0682 15.5312 71 14.555 71 13.3569V11.0937L82.826 19.9687L75.9478 25.1384C75.9478 25.1384 75.8147 25.2272 75.7481 25.2716L71 28.8437V26.6916C71 26.0925 70.756 25.5156 70.3122 25.0941ZM77.6563 29.3984C80.94 29.9309 84.2016 30.8184 87.33 32.1497C97.4253 36.3653 105.635 44.5747 109.873 54.67C111.492 58.4862 112.513 62.5022 112.934 66.5847H108.741C107.898 66.5847 107.121 67.0506 106.766 67.805C106.411 68.5594 106.478 69.4469 106.966 70.1347L112.624 77.6784C112.113 80.9622 111.204 84.2237 109.895 87.3744C105.657 97.4697 97.4697 105.679 87.3744 109.895C83.5582 111.514 79.5422 112.535 75.4597 112.957V108.763C75.4597 107.92 74.9938 107.143 74.2394 106.788C73.485 106.411 72.5753 106.5 71.9097 107.01L64.366 112.668C61.0822 112.136 57.8207 111.248 54.6922 109.917C44.5969 105.701 36.3875 97.4919 32.1497 87.3966C30.53 83.5803 29.5094 79.5644 29.0878 75.4819H33.2813C34.1244 75.4819 34.901 75.0159 35.256 74.2616C35.611 73.5072 35.5444 72.6197 35.0563 71.9319L29.3985 64.3881C29.9088 61.1044 30.8185 57.8428 32.1275 54.6922C36.3653 44.5969 44.5525 36.3875 54.6478 32.1719C58.4641 30.5522 62.48 29.5316 66.5625 29.11V33.3034C66.5625 34.1466 67.0285 34.9231 67.7828 35.2781C68.5372 35.6553 69.4247 35.5666 70.1125 35.0562L77.6563 29.3984Z" fill="black"/>
<path d="M60.0392 37.2306C59.3735 37.4525 58.841 37.9628 58.6192 38.6284L55.0692 49.0566L44.0642 49.2119C43.3763 49.2119 42.7107 49.5669 42.3113 50.1216C41.8898 50.6762 41.7788 51.4084 41.9785 52.0741L45.2179 62.6131L36.4095 69.225C35.8548 69.6466 35.522 70.29 35.522 71C35.522 71.71 35.8548 72.3534 36.4095 72.775L45.2179 79.3869L41.9785 89.9259C41.7788 90.5916 41.8898 91.3237 42.3113 91.8784C42.7107 92.4331 43.3763 92.7881 44.0642 92.7881L55.0692 92.9434L58.6192 103.372C58.841 104.037 59.3735 104.547 60.0392 104.769C60.261 104.836 60.5051 104.88 60.727 104.88C61.1707 104.88 61.6367 104.747 62.0138 104.481L71.022 98.1353L80.0301 104.481C80.607 104.88 81.317 104.991 81.9826 104.769C82.6482 104.547 83.1807 104.037 83.4026 103.372L86.9526 92.9434L97.9576 92.7881C98.6454 92.7881 99.311 92.4331 99.7104 91.8784C100.132 91.3237 100.243 90.5916 100.043 89.9259L96.8038 79.3869L105.612 72.775C106.167 72.3534 106.5 71.71 106.5 71C106.5 70.29 106.167 69.6466 105.612 69.225L96.8038 62.6131L100.043 52.0741C100.243 51.4084 100.132 50.6762 99.7104 50.1216C99.311 49.5669 98.6454 49.2119 97.9576 49.2119L86.9526 49.0566L83.4026 38.6284C83.1807 37.9628 82.6482 37.4525 81.9826 37.2306C81.317 37.0087 80.5848 37.1197 80.0079 37.5191L70.9998 43.8647L61.9917 37.5191C61.4148 37.1197 60.6826 37.0087 60.0392 37.2306ZM72.2867 48.4131L80.141 42.8662L83.2473 51.9631C83.5579 52.8506 84.3788 53.4497 85.3107 53.4719L94.9401 53.605L92.1001 62.7906C91.8338 63.6781 92.1445 64.6544 92.8988 65.2091L100.598 70.9778L92.8988 76.7466C92.1445 77.3012 91.8338 78.2775 92.1001 79.165L94.9401 88.3506L85.3107 88.4837C84.3788 88.4837 83.5357 89.105 83.2473 89.9925L80.141 99.0894L72.2867 93.5425C71.9095 93.2762 71.4657 93.1431 70.9998 93.1431C70.5338 93.1431 70.1123 93.2762 69.7129 93.5425L61.8585 99.0894L58.7523 89.9925C58.4417 89.105 57.6207 88.5059 56.6888 88.4837L47.0595 88.3506L49.8995 79.165C50.1657 78.2775 49.8551 77.3012 49.1007 76.7466L41.4017 70.9778L49.1007 65.2091C49.8551 64.6544 50.1657 63.6781 49.8995 62.7906L47.0595 53.605L56.6888 53.4719C57.6207 53.4719 58.4638 52.8506 58.7523 51.9631L61.8585 42.8662L69.7129 48.4131C70.4895 48.9456 71.5101 48.9456 72.2645 48.4131H72.2867Z" fill="black"/>
<path d="M54.1597 75.2156L66.0965 83.891C66.4959 84.1794 66.9397 84.3125 67.4056 84.3125C68.0269 84.3125 68.6481 84.0463 69.0919 83.536L88.2175 61.3485L84.845 58.4419L67.0728 79.0763L56.7778 71.5991L54.1597 75.1935V75.2156Z" fill="black"/>
</svg>
